<?xml version="1.0" encoding="UTF-8"?>
<svg width="25px" height="15px" viewBox="0 0 25 15" version="1.1" xmlns="http://www.w3.org/2000/svg" xmlns:xlink="http://www.w3.org/1999/xlink">
    <!-- Generator: Sketch 51.1 (57501) - http://www.bohemiancoding.com/sketch -->
    <title>Group 21</title>
    <desc>Created with Sketch.</desc>
    <defs></defs>
    <g id="split_the_bill" stroke="none" stroke-width="1" fill="none" fill-rule="evenodd">
        <g id="procceses/split_the_bill/webpage_pay" transform="translate(-156.000000, -793.000000)" fill-rule="nonzero">
            <g id="Group-21" transform="translate(156.000000, 793.000000)">
                <polygon id="Shape" fill="#FF5F00" points="15.9414485 13.2707463 9.31425154 13.2707463 9.31425154 1.79190939 15.9414485 1.79190939"></polygon>
                <g id="Group" transform="translate(6.608589, 7.530400) scale(-1, 1) rotate(-180.000000) translate(-6.608589, -7.530400) translate(0.107371, 0.104337)" fill="#EB001B">
                    <path d="M9.63143382,7.42606299 C9.63143382,9.75459787 10.7626457,11.8287901 12.524235,13.1654814 C11.2360307,14.142937 9.61024467,14.726347 7.84335813,14.726347 C3.66042642,14.726347 0.269680147,11.4579511 0.269680147,7.42606299 C0.269680147,3.39417492 3.66042642,0.125778942 7.84335813,0.125778942 C9.61024467,0.125778942 11.2360307,0.709189016 12.524235,1.68664456 C10.7626457,3.0233359 9.63143382,5.09752812 9.63143382,7.42606299" id="Shape"></path>
                </g>
                <path d="M24.8794191,7.53039957 C24.8794191,3.49851149 21.4886728,0.230115517 17.3057411,0.230115517 C15.5388546,0.230115517 13.9130686,0.813525591 12.6243827,1.79098113 C14.3864535,3.12767247 15.5176654,5.20186469 15.5176654,7.53039957 C15.5176654,9.85893444 14.3864535,11.9331267 12.6243827,13.269818 C13.9130686,14.2472735 15.5388546,14.8306836 17.3057411,14.8306836 C21.4886728,14.8306836 24.8794191,11.5622876 24.8794191,7.53039957" id="Shape" fill="#F79E1B" transform="translate(18.751901, 7.530400) scale(-1, 1) rotate(-180.000000) translate(-18.751901, -7.530400) "></path>
            </g>
        </g>
    </g>
</svg>