<?xml version="1.0" encoding="UTF-8"?>
<svg width="102px" height="53px" viewBox="0 0 102 53" version="1.1" xmlns="http://www.w3.org/2000/svg" xmlns:xlink="http://www.w3.org/1999/xlink">
    <!-- Generator: Sketch 51.1 (57501) - http://www.bohemiancoding.com/sketch -->
    <title>Group</title>
    <desc>Created with Sketch.</desc>
    <defs></defs>
    <g id="split_the_bill" stroke="none" stroke-width="1" fill="none" fill-rule="evenodd" fill-opacity="0.08">
        <g id="procceses/split_the_bill/webpage_pay" transform="translate(-137.000000, -116.000000)" fill="#243B55">
            <g id="Group" transform="translate(137.000000, 116.000000)">
                <path d="M51.8531258,59.8090432 C48.0514871,59.8090432 46.5947516,60.9413858 46.5947516,63.6292395 C46.5947516,65.3264981 47.1276742,66.5287047 47.1276742,66.5287047 C46.2750419,67.4130847 44.8183065,67.9779461 43.3612419,68.0842158 C43.3612419,68.0842158 42.1181032,66.3158378 42.1181032,62.4267054 C42.1181032,56.9095779 45.2444581,54.1865739 51.8178645,54.1865739 C58.3197613,54.1865739 61.6241226,56.8744822 61.6241226,62.4267054 C61.6241226,66.1042263 60.5226871,67.7312388 60.5226871,67.7312388 C59.1371323,67.6948877 57.6803968,67.094876 56.7921742,66.1744724 C56.7921742,66.1744724 57.2895065,65.0784809 57.2895065,63.4875466 C57.2895065,60.7996929 55.6907387,59.8090432 51.8531258,59.8090432 Z M42.7571387,51.1115754 C42.7571387,51.1115754 42.4733484,50.1920997 42.4733484,48.3882985 C42.4733484,46.5496745 42.7571387,45.6656219 42.7571387,45.6656219 L55.1934065,45.6656219 C56.5077806,45.6656219 57.3250968,45.0280038 57.3250968,43.4022466 C57.3250968,42.5178666 56.9698516,41.6689644 56.3301032,40.9623555 L42.7571387,40.9623555 C42.7571387,40.9623555 42.4733484,40.0068016 42.4733484,38.2380961 C42.4733484,36.3994721 42.7571387,35.5150921 42.7571387,35.5150921 L60.9847581,35.5150921 C60.9847581,35.5150921 61.2688226,36.3994721 61.2688226,38.2380961 C61.2688226,40.0068016 60.9847581,40.9623555 60.9847581,40.9623555 L59.9185839,40.9623555 C61.0556097,42.1996579 61.6241226,43.8254151 61.6241226,45.7004448 C61.6241226,49.3077742 59.4568419,51.1115754 56.2948419,51.1115754 L42.7571387,51.1115754 Z M40.4481,27.1358876 C36.0064387,25.7919335 33.590629,24.1298252 33.590629,19.4976782 C33.590629,17.9772629 34.0167806,16.810152 34.0167806,16.810152 C34.0167806,16.810152 34.8340968,16.4916158 35.9708484,16.4916158 C37.1078742,16.4916158 38.0320161,16.880016 38.0320161,16.880016 C38.0320161,16.880016 37.8896,17.7293003 37.8896,18.436837 C37.8896,20.2042871 38.2093097,21.1237628 41.3363226,22.114358 L42.4733484,22.4676624 C42.4733484,21.8663953 42.5798452,21.301534 42.7571387,20.8055541 L61.0200194,14.6169136 C61.0200194,14.6169136 61.3044129,15.6778094 61.3044129,17.4812831 C61.3044129,19.3563128 61.0200194,20.2406382 61.0200194,20.2406382 L52.5993161,23.1050077 C49.8634677,24.0244834 47.6961871,24.2360949 47.6961871,24.2360949 L47.6961871,24.3774604 C47.6961871,24.3774604 49.8282065,24.625423 52.5993161,25.438629 L61.0200194,27.9496941 C61.0200194,27.9496941 61.3044129,28.8691698 61.3044129,30.5663738 C61.3044129,32.1934409 61.0200194,33.2191318 61.0200194,33.2191318 L40.4481,27.1358876 Z M68.4816484,5.21289153 C68.4816484,9.80928784 67.2733871,12.6388345 67.2733871,12.6388345 C65.7813903,12.6388345 64.1470323,12.1792603 63.0811871,11.2246888 C63.0811871,11.2246888 63.7917323,8.89013957 63.7917323,6.09694406 C63.7917323,3.05480345 62.8679194,1.60556208 61.0556097,1.60556208 C59.1015419,1.60556208 58.6398,4.54012303 57.5736258,7.51108969 C56.4366,10.6234218 54.6604839,13.734826 50.0058839,13.734826 C44.8538968,13.734826 42.0469226,10.5873436 42.0469226,4.1868186 C42.0469226,-1.01210014 43.7880516,-4.26519727 43.7880516,-4.26519727 C45.2800484,-4.26519727 46.9856419,-3.73504958 48.1226677,-2.92124313 C48.1226677,-2.92124313 47.0212323,0.261607936 47.0212323,3.79749053 C47.0212323,6.59161393 47.9449903,7.86439412 49.7570258,7.86439412 C51.3913839,7.86439412 52.1019839,6.27345982 52.8128581,4.22196892 C53.9852,0.686086324 55.0510452,-4.12344977 60.6647194,-4.12344977 C65.3196484,-4.12344977 68.4816484,-1.18856132 68.4816484,5.21289153 Z M42.7571387,-7.41136974 C42.7571387,-7.41136974 42.4733484,-8.33079091 42.4733484,-10.1343192 C42.4733484,-11.9729432 42.7571387,-12.8573232 42.7571387,-12.8573232 L55.1934065,-12.8573232 C56.5077806,-12.8573232 57.3250968,-13.493686 57.3250968,-15.1206985 C57.3250968,-16.0047511 56.9698516,-16.8530529 56.3301032,-17.5605896 L42.7571387,-17.5605896 C42.7571387,-17.5605896 42.4733484,-18.5151611 42.4733484,-20.2835936 C42.4733484,-22.1221631 42.7571387,-23.0065431 42.7571387,-23.0065431 L60.9847581,-23.0065431 C60.9847581,-23.0065431 61.2688226,-22.1221631 61.2688226,-20.2835936 C61.2688226,-18.5151611 60.9847581,-17.5605896 60.9847581,-17.5605896 L59.9185839,-17.5605896 C61.0556097,-16.3229597 61.6241226,-14.6958927 61.6241226,-12.8221729 C61.6241226,-9.21484343 59.4568419,-7.41136974 56.2948419,-7.41136974 L42.7571387,-7.41136974 Z M67.7357871,-32.8362989 C67.7357871,-32.8362989 68.0551677,-31.7754577 68.0551677,-30.043158 C68.0551677,-28.2747254 67.7357871,-27.1787885 67.7357871,-27.1787885 L42.792729,-27.1787885 C42.792729,-27.1787885 42.4733484,-28.3098212 42.4733484,-30.0080076 C42.4733484,-31.8817274 42.792729,-32.8362989 42.792729,-32.8362989 L67.7357871,-32.8362989 Z" id="Fill-13" transform="translate(51.036139, 17.623958) rotate(-90.000000) translate(-51.036139, -17.623958) "></path>
                <path d="M-0.251380645,42.035805 C-0.251380645,42.3877995 -0.166435484,42.6871776 0.00383870968,42.9348128 C0.173783871,43.1825025 0.399883871,43.381342 0.681370968,43.5313313 C0.962912903,43.6806656 1.2903,43.7882452 1.6635871,43.8536881 C2.03649032,43.918749 2.42606452,43.951334 2.83203548,43.951334 C3.77476774,43.951334 4.47187742,43.8147171 4.92363871,43.540883 C5.37545484,43.2673763 5.60117097,42.778765 5.60117097,42.0750489 C5.60117097,41.8139868 5.57199677,41.5765584 5.51299032,41.3614536 C5.45403871,41.1463489 5.33920645,40.9085384 5.16926129,40.6478038 L-0.015683871,40.6478038 C-0.120535484,40.9344099 -0.185958065,41.1757136 -0.211951613,41.3710054 C-0.238548387,41.5666246 -0.251380645,41.7881153 -0.251380645,42.035805 M7.56521935,42.7395211 C7.56521935,43.2606629 7.47029355,43.7493288 7.28044194,44.2056826 C7.09064516,44.6617636 6.80235806,45.0622808 6.41629355,45.4076164 C6.0299,45.7528973 5.53898387,46.0235658 4.94354516,46.2188575 C4.34744839,46.4145313 3.64359355,46.5121771 2.83203548,46.5121771 C1.11651613,46.5121771 -0.160019355,46.1212116 -0.997845161,45.3396081 C-1.83572581,44.5574042 -2.25485806,43.4237516 -2.25485806,41.9381591 C-2.25485806,41.2079166 -2.16634839,40.5335652 -1.98965806,39.914723 C-1.81296774,39.2958808 -1.61351935,38.7255613 -1.39065484,38.2044195 L11.2774161,38.2044195 L11.2774161,40.6478038 L7.03514839,40.6478038 C7.16566452,40.8692945 7.28685806,41.1721659 7.39845484,41.5570728 C7.50939355,41.9409974 7.56521935,42.3354561 7.56521935,42.7395211" id="Fill-15" transform="translate(4.511279, 42.358298) rotate(-90.000000) translate(-4.511279, -42.358298) "></path>
                <path d="M11.3263048,45.7009633 C11.3131435,45.6748189 11.3032177,45.6062102 11.2968016,45.4954649 C11.2900565,45.3847195 11.2872048,45.2774674 11.2872048,45.173108 C11.2872048,44.8996014 11.3195597,44.6516387 11.3853113,44.4304755 L20.4588694,41.4786669 L20.4588694,44.1566414 L16.0989177,45.3489688 C15.863221,45.4144117 15.4608145,45.5152233 14.8910403,45.6521677 C14.3215403,45.7887299 13.5718403,45.9419395 12.6422694,46.1114143 L12.6422694,46.1506582 C13.5978339,46.3198055 14.3734726,46.4599156 14.9695694,46.5709884 C15.5653371,46.6814063 15.9418048,46.7567284 16.0989177,46.7956449 L20.4588694,47.7729222 L20.4588694,50.4706551 L13.4474113,48.4963966 C12.5306726,48.248434 11.7059532,48.030109 10.97265,47.8415308 C10.239621,47.652243 9.61753065,47.4144871 9.1070371,47.1278809 C8.59626935,46.8410019 8.20345968,46.4663016 7.9286629,46.0038347 C7.6535371,45.5410948 7.51627581,44.9059874 7.51627581,44.0982394 C7.51627581,43.7589624 7.5685371,43.3973616 7.67344355,43.0131096 C7.77829516,42.6285301 7.94182419,42.1823829 8.16435968,41.6739586 L9.93181129,42.2411124 C9.78813387,42.6320779 9.6864629,42.9741932 9.62745645,43.2671853 C9.56877903,43.5604504 9.53900161,43.8244053 9.53900161,44.0589409 C9.53900161,44.4757779 9.62427581,44.788856 9.79455,44.9972472 C9.96482419,45.2053655 10.2004661,45.3553548 10.5015855,45.4469421 L11.3263048,45.7009633 Z" id="Fill-17" transform="translate(13.987573, 45.974661) rotate(-90.000000) translate(-13.987573, -45.974661) "></path>
                <path d="M28.4716,43.4041024 C28.8643548,43.2930295 29.1718903,43.2052629 29.3947548,43.1401474 C29.643229,43.0747591 29.8135032,43.0230161 29.9051935,42.9837722 C30.1017903,42.9186567 30.3374323,42.8532684 30.6122839,42.788153 C30.8479258,42.7230375 31.1358839,42.6480429 31.4764323,42.563442 C31.8169806,42.4788956 32.2033194,42.3844154 32.6352839,42.2803836 L32.6352839,42.2018957 C32.2161516,42.0847644 31.8397387,41.9771847 31.5059355,41.8795389 C31.1721323,41.7815655 30.8873548,41.7001849 30.6517129,41.6350695 C30.3765871,41.5568545 30.127729,41.4850802 29.9051935,41.4199647 C29.8003419,41.3809937 29.6237065,41.3287049 29.3748484,41.2635895 C29.1523129,41.1981465 28.8448323,41.1072142 28.4520226,40.9900828 C28.0592129,40.872624 27.5352839,40.7162487 26.8807839,40.5209024 L26.8807839,43.8439181 C27.5483903,43.6613438 28.0787903,43.5148477 28.4716,43.4041024 Z M22.1277484,45.2513502 C22.4157065,45.1600358 22.7103548,45.0722692 23.0118032,44.9873953 C23.3128677,44.9025215 23.5876645,44.8211408 23.8365226,44.7429259 C24.1244806,44.651666 24.4060226,44.5673926 24.6810935,44.4889047 L24.6810935,39.8366718 C24.4060226,39.7584569 24.1244806,39.673583 23.8365226,39.5823232 C23.5876645,39.5044357 23.3128677,39.4163416 23.0118032,39.3186957 C22.7103548,39.2209953 22.4157065,39.1262423 22.1277484,39.0352553 L22.1277484,36.3375224 L35.1687774,40.83338 C35.2473065,41.0941147 35.3095484,41.3092194 35.3553935,41.4786942 C35.4012387,41.6478415 35.4243258,41.8954766 35.4243258,42.2213267 C35.4243258,42.7948665 35.3389968,43.3227217 35.1687774,43.8049471 L22.1277484,48.0662145 L22.1277484,45.2513502 Z" id="Fill-18" transform="translate(28.776037, 42.201868) rotate(-90.000000) translate(-28.776037, -42.201868) "></path>
                <polygon id="Fill-19" transform="translate(37.329085, 42.221338) rotate(-90.000000) translate(-37.329085, -42.221338) " points="30.7005213 43.4430387 43.9576477 43.4430387 43.9576477 40.9996364 30.7005213 40.9996364"></polygon>
                <path d="M48.4550726,44.9092622 C48.4679048,44.8045754 48.47465,44.707257 48.47465,44.6162701 L48.47465,44.342436 C48.47465,43.9384255 48.4550726,43.6157412 48.4156435,43.3748195 C48.3764887,43.1335158 48.3043758,42.951269 48.1998532,42.8274788 C48.0946726,42.7033064 47.9474855,42.6219258 47.7579629,42.5830093 C47.5678371,42.5437108 47.3225435,42.5246074 47.0214242,42.5246074 L45.960679,42.5246074 L45.960679,44.9485062 L43.9771081,44.9485062 L43.9771081,42.5246074 L36.9852823,42.5246074 L36.9852823,40.1201395 L43.9771081,40.1201395 L43.9771081,38.9079991 L45.960679,38.9079991 L45.960679,40.1201395 L47.1195306,40.1201395 C47.45975,40.1201395 47.7512177,40.1296913 47.9936597,40.1491768 C48.2357177,40.1689352 48.4451468,40.1982999 48.6221113,40.2372709 C48.7988016,40.2765148 48.9559145,40.3282033 49.0935048,40.3936462 C49.2307113,40.458707 49.3583758,40.536922 49.4763339,40.6281818 C49.8300435,40.8755441 50.0849339,41.2211525 50.2423758,41.6644615 C50.3995435,42.1071154 50.4780726,42.7131856 50.4780726,43.4823446 C50.4780726,44.0817013 50.4386435,44.687444 50.3600597,45.3002277 L48.4550726,44.9092622 Z" id="Fill-20" transform="translate(43.731677, 42.104113) rotate(-90.000000) translate(-43.731677, -42.104113) "></path>
                <path d="M49.2309855,45.1535679 C49.3880984,45.1012245 49.5875468,45.0686395 49.8299887,45.0558675 C50.0720468,45.0428226 50.3766758,45.0361091 50.7432177,45.0361091 L51.4110984,45.0361091 C51.4370919,44.9709936 51.460179,44.8701275 51.4797565,44.7332377 C51.499279,44.5962934 51.5092597,44.4561833 51.5092597,44.313235 C51.5092597,43.7004513 51.4175145,43.2408771 51.2344081,42.9348401 C51.0506984,42.6284209 50.7236403,42.4755934 50.2522468,42.4755934 C49.7937403,42.4755934 49.4730984,42.5926702 49.2899919,42.8272604 C49.1062274,43.0618506 49.0148661,43.4008002 49.0148661,43.8437816 C49.0148661,44.0652724 49.0247919,44.2739911 49.0443694,44.4692828 C49.0639468,44.664902 49.1261339,44.8927787 49.2309855,45.1535679 Z M47.0707242,46.6978898 C47.0970468,46.593203 47.1884081,46.4435412 47.345521,46.2482495 C47.5026887,46.0529032 47.6726339,45.8965279 47.8560145,45.7790691 C47.7120629,45.5703504 47.6139565,45.4139751 47.5616403,45.3099432 C47.50905,45.2055839 47.4500984,45.075353 47.3850048,44.9189777 C47.2798242,44.6582431 47.1983887,44.3716369 47.1393823,44.0588864 C47.0803758,43.7460812 47.0508726,43.4333306 47.0508726,43.1205801 C47.0508726,42.7034156 47.1133887,42.3092844 47.2374887,41.9378044 C47.3619177,41.5666519 47.5449694,41.2439675 47.7874113,40.9704609 C48.0295242,40.6966267 48.3305887,40.4783563 48.6906597,40.315595 C49.0507855,40.1525062 49.4599371,40.0711256 49.9184435,40.0711256 C50.9003306,40.0711256 51.6759694,40.3870419 52.2457984,41.0189836 C52.8152435,41.6511982 53.100021,42.5796253 53.100021,43.8048106 C53.100021,44.0394008 53.0836242,44.2573984 53.0509403,44.4597311 C53.0182565,44.6614088 52.9755919,44.8535348 52.9233306,45.0361091 L53.3751468,45.0361091 C53.6762113,45.0361091 53.9215048,45.0198439 54.1116855,44.9872589 C54.3011532,44.9547284 54.4483403,44.8765135 54.553521,44.7529961 C54.6580435,44.6288784 54.7302113,44.4466316 54.7693113,44.2056553 C54.8087403,43.9640787 54.8283177,43.6417219 54.8283177,43.2380389 C54.8283177,42.9769768 54.8119758,42.6775986 54.7792919,42.3386491 C54.7465532,41.9996995 54.7038887,41.6608045 54.6516274,41.3221824 L56.4585081,40.9509753 C56.7070371,41.9409701 56.8317952,42.9900217 56.8317952,44.0981303 C56.8317952,44.8669618 56.7497016,45.4694842 56.5861726,45.9060796 C56.4223145,46.3426751 56.1702758,46.6845174 55.8300565,46.9324801 C55.7120435,47.0234124 55.5844339,47.1016274 55.4471726,47.1670703 C55.3096371,47.2321857 55.1525242,47.2842016 54.9758339,47.3234456 C54.7988145,47.362362 54.5894403,47.3917267 54.3473274,47.4115397 C54.1049403,47.4309706 53.8138016,47.4409044 53.4732532,47.4409044 L50.9593371,47.4409044 C50.6450565,47.4409044 50.3702597,47.4536218 50.1342887,47.4798208 C49.898921,47.5056924 49.6760565,47.548102 49.4666823,47.6068314 C49.2573081,47.6655608 49.0507855,47.7501618 48.8481016,47.8609071 C48.6448145,47.9716525 48.4190984,48.1053766 48.1702403,48.2617518 L47.0707242,46.6978898 Z" id="Fill-21" transform="translate(51.941334, 44.166439) rotate(-90.000000) translate(-51.941334, -44.166439) "></path>
                <path d="M59.2966581,45.7304099 C58.8644194,45.7304099 58.4944226,45.5772003 58.1868871,45.2711632 C57.8790774,44.9647441 57.7254742,44.5964844 57.7254742,44.1666025 C57.7254742,43.736393 57.8790774,43.3712445 58.1868871,43.0719209 C58.4944226,42.7718877 58.8644194,42.622226 59.2966581,42.622226 C59.7285677,42.622226 60.0951097,42.7718877 60.3965032,43.0719209 C60.6976226,43.3712445 60.8479903,43.736393 60.8479903,44.1666025 C60.8479903,44.5964844 60.6976226,44.9647441 60.3965032,45.2711632 C60.0951097,45.5772003 59.7285677,45.7304099 59.2966581,45.7304099" id="Fill-22" transform="translate(59.286732, 44.176318) rotate(-90.000000) translate(-59.286732, -44.176318) "></path>
                <path d="M65.3159468,43.9612951 C65.8527081,43.9612951 66.2913629,43.7688416 66.6319113,43.3845896 C66.9724048,43.0000101 67.14235,42.5145644 67.14235,41.9283072 L67.14235,40.3446868 L63.2733694,40.3446868 L63.2733694,40.8336257 C63.2733694,41.3027515 63.2897113,41.7294677 63.3223952,42.1140472 C63.3551339,42.4982992 63.4368984,42.8276425 63.5680177,43.1012037 C63.6988629,43.3749833 63.901821,43.5865948 64.1769468,43.7362566 C64.4517435,43.885973 64.8313919,43.9612951 65.3159468,43.9612951 Z M69.2048339,40.3446868 L69.2048339,41.7524464 C69.2048339,42.2994597 69.3442887,42.726176 69.6242403,43.0325405 C69.9041371,43.3386322 70.2979339,43.4921146 70.805521,43.4921146 C71.312779,43.4921146 71.7030113,43.3583906 71.9762177,43.0912699 C72.2497532,42.8241493 72.3863565,42.4364041 72.3863565,41.9283072 L72.3863565,41.1853472 C72.3863565,40.9118406 72.3796113,40.631293 72.366779,40.3446868 L69.2048339,40.3446868 Z M64.9683242,46.5221382 C63.6174274,46.5221382 62.6144274,46.1276795 61.9586661,45.3393625 C61.3032339,44.5507726 60.9755726,43.4397712 60.9755726,42.0065222 C60.9755726,41.6544731 60.9790823,41.2833206 60.9854984,40.8923551 C60.9922435,40.5013896 60.9986597,40.1231961 61.005021,39.7587571 C61.0117661,39.393281 61.0214177,39.048 61.03425,38.7224774 C61.0476855,38.3966274 61.0608468,38.1231207 61.073679,37.9013025 L74.5664694,37.9013025 C74.5793016,38.1096937 74.5924629,38.3704284 74.6058984,38.6831789 C74.6187306,38.9959841 74.6318919,39.3313859 74.6450532,39.6900939 C74.6578855,40.0485289 74.6678113,40.4065819 74.6745565,40.7653445 C74.6809726,41.1233975 74.6841532,41.4524679 74.6841532,41.7524464 C74.6841532,43.0944902 74.3737661,44.1371559 73.7529919,44.8797884 C73.1318887,45.6230758 72.2269952,45.9942829 71.037379,45.9942829 C70.3707048,45.9942829 69.808279,45.8346874 69.3510339,45.5155508 C68.8934597,45.1957592 68.534321,44.6777832 68.2726855,43.9612951 C68.08925,44.8082869 67.6958371,45.4469421 67.0926661,45.8768241 C66.489221,46.3070335 65.7811984,46.5221382 64.9683242,46.5221382 Z" id="Fill-23" transform="translate(67.829863, 42.211720) rotate(-90.000000) translate(-67.829863, -42.211720) "></path>
                <path d="M75.3321823,45.1535679 C75.4892952,45.1012245 75.6887435,45.0686395 75.9311855,45.0559221 C76.1732435,45.0424951 76.4778726,45.0364366 76.8444145,45.0364366 L77.5122952,45.0364366 C77.5382887,44.9709936 77.5613758,44.8701821 77.5809532,44.7332377 C77.6004758,44.5963479 77.6104565,44.4562379 77.6104565,44.3129075 C77.6104565,43.7001784 77.5187113,43.2408771 77.3356048,42.9348401 C77.1518952,42.6284755 76.8248371,42.4755934 76.3534435,42.4755934 C75.8949371,42.4755934 75.5742952,42.5930523 75.3911887,42.8272604 C75.2074242,43.0618506 75.1160629,43.4008002 75.1160629,43.8437816 C75.1160629,44.0652724 75.1259887,44.2739911 75.1455661,44.4692828 C75.1651435,44.6649566 75.2273306,44.8928333 75.3321823,45.1535679 Z M73.171921,46.6979444 C73.1982435,46.5935851 73.2896048,46.4435412 73.4467177,46.2482495 C73.6038855,46.0525757 73.7738306,45.8965279 73.9572113,45.7790691 C73.8132597,45.5706778 73.7151532,45.4139751 73.6628371,45.3099432 C73.6102468,45.2055839 73.5512952,45.075353 73.4862016,44.9189777 C73.381021,44.6582431 73.2995855,44.3716369 73.240579,44.0588864 C73.1815726,43.7461358 73.1520694,43.4333306 73.1520694,43.1205801 C73.1520694,42.7034701 73.2145855,42.3092844 73.3386855,41.9381318 C73.4631145,41.5666519 73.6461661,41.2439675 73.8886081,40.9704609 C74.130721,40.6966267 74.4317855,40.4783563 74.7918565,40.315595 C75.1519823,40.1525062 75.5611339,40.0711256 76.0196403,40.0711256 C77.0015274,40.0711256 77.7771661,40.386769 78.3469952,41.0193111 C78.9164403,41.6511982 79.2012177,42.5799528 79.2012177,43.8048652 C79.2012177,44.0394008 79.184821,44.2573984 79.1521371,44.4597311 C79.1194532,44.6614088 79.0767887,44.8538623 79.0245274,45.0364366 L79.4763435,45.0364366 C79.7774081,45.0364366 80.0227016,45.0198439 80.2128823,44.9872589 C80.40235,44.9547284 80.5495371,44.8765135 80.6547177,44.7527232 C80.7592403,44.6288784 80.8314081,44.4466316 80.8705081,44.2053824 C80.9099371,43.9640787 80.9295145,43.6417764 80.9295145,43.2380389 C80.9295145,42.9769768 80.9131726,42.6772711 80.8804887,42.3386491 C80.84775,41.9997541 80.8050855,41.661132 80.7528242,41.3221824 L82.5597048,40.9507024 C82.8082339,41.9410247 82.9329919,42.9903492 82.9329919,44.0978028 C82.9329919,44.8669618 82.8508984,45.4695388 82.6873694,45.9061342 C82.5235113,46.3427296 82.2714726,46.6848449 81.9312532,46.9324801 C81.8132403,47.023467 81.6856306,47.1016274 81.5483694,47.1670703 C81.4108339,47.2321857 81.253721,47.2842016 81.0770306,47.3234456 C80.9000113,47.362362 80.6906371,47.3917267 80.4485242,47.4112122 C80.2061371,47.4310252 79.9149984,47.4405769 79.57445,47.4405769 L77.0605339,47.4405769 C76.7462532,47.4405769 76.4714565,47.4536764 76.2354855,47.4798208 C76.0001177,47.5056924 75.7772532,47.5481566 75.567879,47.6068314 C75.3585048,47.6655608 75.1519823,47.7501618 74.9492984,47.8609071 C74.7460113,47.9716525 74.5202952,48.1053766 74.2714371,48.2617518 L73.171921,46.6979444 Z" id="Fill-24" transform="translate(78.042531, 44.166439) rotate(-90.000000) translate(-78.042531, -44.166439) "></path>
                <path d="M82.9916694,45.485804 L89.0016629,45.485804 C89.2892919,45.485804 89.5249887,45.4692113 89.7084242,45.4369538 C89.8918048,45.4044234 90.0358113,45.3358147 90.1406629,45.2317829 C90.2455145,45.1274235 90.3205339,44.9742139 90.3667081,44.7724816 C90.4122242,44.5701489 90.4353113,44.2998626 90.4353113,43.9612405 L90.4353113,43.6290044 C90.4353113,43.5377446 90.4285661,43.4496504 90.4154597,43.364722 C90.4022984,43.2801756 90.3891371,43.1856955 90.3763048,43.0816636 C90.3631984,42.9769768 90.343621,42.8467459 90.3172984,42.6903706 L82.9916694,42.6903706 L82.9916694,40.2469864 L91.9670661,40.2469864 C92.1636629,40.911786 92.3076145,41.5436731 92.3993048,42.1430299 C92.490721,42.7423866 92.5368952,43.4461027 92.5368952,44.2545056 C92.5368952,45.075353 92.4580371,45.7398251 92.3011984,46.2482495 C92.1437565,46.7563464 91.8885371,47.1342124 91.5351565,47.3818475 C91.4171435,47.4731619 91.2895339,47.5513223 91.1519984,47.6167652 C91.0147371,47.6815531 90.8576242,47.7338966 90.6806048,47.7731405 C90.5039694,47.8120569 90.2977758,47.8414216 90.062079,47.8609071 C89.8263823,47.8803926 89.538479,47.8902718 89.1979306,47.8902718 L82.9916694,47.8902718 L82.9916694,45.485804 Z" id="Fill-25" transform="translate(87.764282, 44.068629) rotate(-90.000000) translate(-87.764282, -44.068629) "></path>
                <path d="M91.1913452,43.5018574 C91.6886774,43.2931387 92.1240968,43.1108919 92.4973839,42.9545166 C92.8706161,42.7980867 93.1749161,42.667583 93.4105581,42.5635511 C93.6856839,42.4329928 93.9146355,42.3289609 94.098071,42.250746 C94.2946129,42.1725856 94.4514516,42.097591 94.5694097,42.025762 C94.6870935,41.9542606 94.7788387,41.8761003 94.8445355,41.7914993 C94.909629,41.7066255 94.9522935,41.6057593 94.9721452,41.4883005 C94.9917226,41.3712237 95.0013742,41.2275658 95.0013742,41.0584185 L95.0013742,40.725855 L91.1913452,40.725855 L91.1913452,38.2824707 L104.448439,38.2824707 L104.448439,40.725855 L96.9852194,40.725855 L96.9852194,41.1366335 C96.9852194,41.449384 97.0438968,41.6609955 97.1619097,41.7720684 C97.2795935,41.8824863 97.463029,41.9967248 97.7118323,42.1138562 C97.9603613,42.231315 98.1860774,42.3388401 98.3893645,42.4365405 C98.5923774,42.5341864 98.8116774,42.6417115 99.0473742,42.7588428 C99.2699097,42.8632022 99.4696871,42.9643958 99.6463226,43.0620417 C99.8230129,43.1596875 99.9769452,43.2736532 100.108065,43.404157 C100.27801,43.5733043 100.405674,43.749165 100.490948,43.9320668 C100.575894,44.114259 100.63139,44.3747208 100.657713,44.7136703 C100.67049,44.9092895 100.677565,45.1045813 100.677565,45.300255 C100.677565,45.4958742 100.664074,45.684507 100.638135,45.8673542 L98.9492677,45.730137 C98.9752065,45.6388771 98.9816226,45.5609897 98.9687903,45.4958742 C98.955629,45.4301584 98.9361065,45.3717019 98.9097839,45.319686 C98.8835161,45.26767 98.8511065,45.2153266 98.8116774,45.1636382 C98.7064968,45.0461793 98.5728,44.9386542 98.4089419,44.8410084 C98.2454129,44.7429805 97.9407839,44.5898255 97.4957129,44.3814343 C97.0372065,44.1599435 96.713329,43.9480045 96.5234774,43.7463268 C96.3336806,43.5439395 96.2124323,43.3128971 96.160171,43.0521625 L96.1014935,43.0521625 C96.0094742,43.4300285 95.8459452,43.7198003 95.6102484,43.922133 C95.3746065,44.1241928 95.0667419,44.3159913 94.6870935,44.4988385 C94.5303097,44.5770535 94.301029,44.6874713 93.9999645,44.8310746 C93.737671,44.9613055 93.3813839,45.1307803 92.9292935,45.3391715 C92.4778065,45.5475627 91.8983806,45.8213968 91.1913452,46.1603464 L91.1913452,43.5018574 Z" id="Fill-26" transform="translate(97.819892, 42.221409) rotate(-90.000000) translate(-97.819892, -42.221409) "></path>
            </g>
        </g>
    </g>
</svg>