<?xml version="1.0" encoding="UTF-8"?>
<svg width="30px" height="10px" viewBox="0 0 30 10" version="1.1" xmlns="http://www.w3.org/2000/svg" xmlns:xlink="http://www.w3.org/1999/xlink">
    <!-- Generator: Sketch 51.1 (57501) - http://www.bohemiancoding.com/sketch -->
    <title>Visa_Inc._logo</title>
    <desc>Created with Sketch.</desc>
    <defs></defs>
    <g id="split_the_bill" stroke="none" stroke-width="1" fill="none" fill-rule="evenodd">
        <g id="procceses/split_the_bill/webpage_pay" transform="translate(-189.000000, -796.000000)" fill-rule="nonzero">
            <g id="Visa_Inc._logo" transform="translate(189.000000, 796.000000)">
                <polygon id="polygon9" fill="#00579F" points="12.96978 9.62215913 10.5563519 9.62215913 12.0658827 0.288354449 14.4791788 0.288354449"></polygon>
                <path d="M21.7186712,0.516539341 C21.2426371,0.32768302 20.4876077,0.119162413 19.5540161,0.119162413 C17.1706784,0.119162413 15.4923514,1.39008231 15.4820574,3.20711504 C15.4622611,4.54771778 16.6836904,5.29232111 17.5972218,5.73932066 C18.5309454,6.19608637 18.8483454,6.49421805 18.8483454,6.90136113 C18.8388432,7.526659 18.0938439,7.81489255 17.3989952,7.81489255 C16.4354453,7.81489255 15.9191588,7.66628862 15.134567,7.31840235 L14.816771,7.16927052 L14.4790468,9.26450669 C15.0450879,9.52238597 16.0879549,9.75123074 17.1706784,9.76126085 C19.7030159,9.76126085 21.3516485,8.51000523 21.3711808,6.57366704 C21.380815,5.51113577 20.7358528,4.69698158 19.3453635,4.03169526 C18.501251,3.60462395 17.9843046,3.31665435 17.9843046,2.8796849 C17.9942028,2.48243995 18.421538,2.07556081 19.374398,2.07556081 C20.1589898,2.05563258 20.7354569,2.24422495 21.1721624,2.4329493 L21.3904492,2.53206257 L21.7186712,0.516539341 Z" id="path11" fill="#00579F"></path>
                <path d="M24.9263252,6.31552381 C25.1250796,5.77930911 25.8898751,3.70400117 25.8898751,3.70400117 C25.879845,3.72392941 26.0882337,3.15788834 26.2074072,2.81039799 L26.3760713,3.61465405 C26.3760713,3.61465405 26.8331009,5.84885997 26.9323462,6.31552381 C26.5551615,6.31552381 25.4030191,6.31552381 24.9263252,6.31552381 Z M27.9053984,0.288354449 L26.038611,0.288354449 C25.4629358,0.288354449 25.0255704,0.457018586 24.7771933,1.06278415 L21.1923546,9.62202715 L23.7246922,9.62202715 C23.7246922,9.62202715 24.1416014,8.47001679 24.2312125,8.22190366 C24.50902,8.22190366 26.9724666,8.22190366 27.3298551,8.22190366 C27.399142,8.54959775 27.6178247,9.62202715 27.6178247,9.62202715 L29.8524265,9.62202715 L27.9053984,0.288354449 Z" id="path13" fill="#00579F"></path>
                <path d="M8.54056474,0.288354449 L6.17702325,6.65311603 L5.91874804,5.3622679 C5.4817786,3.87279728 4.1113495,2.25451901 2.58202241,1.44986702 L4.74694142,9.612261 L7.29907528,9.612261 L11.0925666,0.288354449 L8.54056474,0.288354449 Z" id="path15" fill="#00579F"></path>
                <path d="M3.98227788,0.288354449 L0.0993074422,0.288354449 L0.0595829469,0.476946821 C3.08854272,1.25150849 5.09456375,3.11855977 5.91874804,5.36266382 L5.07463551,1.07294623 C4.93566577,0.476814846 4.50859445,0.308018734 3.98227788,0.288354449 Z" id="path17" fill="#FAA61A"></path>
            </g>
        </g>
    </g>
</svg>