<svg width="107" height="18" viewBox="0 0 107 18" fill="none" xmlns="http://www.w3.org/2000/svg">
<path d="M102.335 8.76664L106.615 4.09091H103.396L99.8954 7.95468L99.8567 4.09091H97.2915L97.3302 13.9091H99.908L99.908 9.80697L103.693 13.9091H107L102.335 8.76664ZM69.9995 5.39193H67.1388V2.53738H73.7782V0H64.4479L64.4479 13.9091C64.4479 13.9091 66.9251 13.9091 69.9995 13.9091C73.074 13.9091 74.8407 12.5156 74.8407 9.68644C74.8407 7.00317 73.0488 5.39193 69.9995 5.39193ZM69.8675 11.5197H67.1388V7.86587H69.8675C71.2884 7.86587 72.0869 8.50022 72.0869 9.69279C72.0869 10.8854 71.2884 11.5197 69.8675 11.5197ZM84.63 10.9615V7.55504C84.63 5.06841 83.0644 3.51427 80.4364 3.51427C77.8083 3.51427 76.2742 5.16357 76.1484 6.88264H78.7451C78.8331 6.51472 79.2229 5.86134 80.4301 5.86134C80.6558 5.83204 80.8846 5.85602 81.099 5.9315C81.3141 6.00699 81.5083 6.13177 81.6668 6.29612C81.8252 6.46042 81.944 6.65973 82.0132 6.8782C82.0824 7.09673 82.1 7.32846 82.0648 7.55504H79.5499C77.2739 7.55504 75.9221 8.76664 75.9221 10.7712C75.9045 11.2495 75.9862 11.7263 76.1629 12.1707C76.339 12.615 76.6062 13.017 76.9463 13.3507C77.2864 13.6843 77.6926 13.9422 78.1377 14.1076C78.5829 14.273 79.0576 14.3422 79.531 14.3108C80.0704 14.3445 80.6099 14.2421 81.1009 14.0129C81.5913 13.7837 82.0176 13.4348 82.3414 12.9977C82.547 13.3477 82.8456 13.6328 83.2034 13.8211C83.5611 14.0094 83.9635 13.939 84.3659 13.9091H85.2524L85.2524 11.729C84.806 11.729 84.63 11.5197 84.63 10.9615ZM82.0773 10.3271C82.0868 10.5767 82.044 10.8255 81.9516 11.0573C81.8592 11.2891 81.7196 11.4986 81.5417 11.6723C81.3637 11.8458 81.1512 11.9796 80.9186 12.0649C80.686 12.15 80.4382 12.1847 80.1912 12.1667C79.2669 12.1667 78.5376 11.8305 78.5376 10.8219C78.5376 9.81331 79.3487 9.66741 80.034 9.66741H82.0773V10.3271ZM92.8222 7.71997H89.2825V4.09091H86.7173L86.7173 13.9154H89.2825L89.2825 10.0861H92.8222L92.8222 13.9091H95.3874L95.3874 4.09091H92.8222V7.71997Z" fill="currentColor"/>
<path d="M14.9513 9.47106C14.882 11.3428 14.6428 11.6984 13.5978 11.6984V13.9153H13.9881C16.6132 13.9153 17.2365 12.6905 17.3309 9.70191L17.4442 6.39515H19.8679V13.9091H22.4364V4.08665H15.1275L14.9513 9.47106ZM3.80235 11.1806H9.21628L10.1165 13.9091H13.1194L9.07149 2.0714C8.68118 0.917158 8.22792 0 6.67929 0C5.13065 0 4.6585 0.917158 4.24302 2.0714L0 13.9091H2.82028L3.80235 11.1806ZM6.54709 3.11958H6.61633L8.42937 8.78475H4.61444L6.54709 3.11958ZM41.0137 3.85581V0H38.4515V3.85581C37.1062 3.89979 35.8334 4.47118 34.9127 5.44442C33.9921 6.41773 33.4988 7.71336 33.5412 9.04679C33.4954 10.383 33.9869 11.6825 34.9078 12.6595C35.8286 13.6365 37.1033 14.211 38.4515 14.2565V18H41.02V14.2565C41.6878 14.2347 42.3448 14.0827 42.9532 13.8089C43.5616 13.5352 44.1095 13.1452 44.5657 12.6613C45.0218 12.1773 45.3771 11.609 45.6113 10.9887C45.8455 10.3685 45.9539 9.70858 45.9303 9.04679C45.9573 8.38457 45.8508 7.72365 45.6173 7.10267C45.3838 6.48162 45.0278 5.91292 44.5701 5.4297C44.1124 4.94654 43.5622 4.55846 42.9517 4.28824C42.341 4.01802 41.6823 3.87103 41.0137 3.85581ZM38.4578 11.8544C37.7781 11.7804 37.1549 11.4446 36.7227 10.9194C36.2905 10.3941 36.0839 9.72162 36.1475 9.04679C36.0921 8.37365 36.3016 7.70537 36.7324 7.18203C37.163 6.65863 37.7814 6.32078 38.4578 6.23917V11.8544ZM41.0263 11.8544V6.23917C41.7027 6.32078 42.3211 6.65863 42.7518 7.18203C43.1825 7.70537 43.3921 8.37365 43.3367 9.04679C43.3969 9.72094 43.1891 10.3917 42.7575 10.9162C42.326 11.4407 41.7047 11.7774 41.0263 11.8544ZM55.5558 10.9747V7.62426C55.5558 5.17851 53.9883 3.64991 51.3569 3.64991C48.7254 3.64991 47.1894 5.2721 47.0635 6.96291H49.6634C49.7516 6.60104 50.1419 5.95841 51.3506 5.95841C51.5766 5.92958 51.8057 5.95317 52.0204 6.02741C52.2357 6.10166 52.4302 6.22438 52.5888 6.38604C52.7475 6.54763 52.8665 6.74367 52.9357 6.95854C53.005 7.17348 53.0226 7.4014 52.9873 7.62426H50.4692C48.1903 7.62426 46.8368 8.81595 46.8368 10.7875C46.8191 11.258 46.9012 11.727 47.0778 12.164C47.2545 12.6011 47.5218 12.9964 47.8625 13.3246C48.203 13.6528 48.6094 13.9064 49.0552 14.0691C49.501 14.2318 49.9275 14.3491 50.4015 14.3182C50.9367 14.3461 51.5193 14.1936 52.0046 13.9684C52.49 13.7431 52.9118 13.4028 53.2328 12.9775C53.4418 13.3278 53.7465 13.6122 54.1123 13.7977C54.3263 13.9091 54.9459 13.9091 55.2977 13.9091H56.1853V11.7296C55.751 11.7296 55.5558 11.5237 55.5558 10.9747ZM52.9873 10.3508C52.998 10.5965 52.9559 10.8417 52.8633 11.0702C52.7714 11.2986 52.6317 11.5051 52.4535 11.676C52.2747 11.847 52.0619 11.9785 51.8284 12.062C51.5948 12.1454 51.3461 12.1789 51.0987 12.1601C50.1733 12.1601 49.4431 11.8295 49.4431 10.8374C49.4431 9.84541 50.2552 9.70191 50.9414 9.70191H52.9873V10.3508ZM28.8324 7.10641H26.9878V4.08665H24.4194V13.9091H28.8764C31.6652 13.9091 32.6536 12.2288 32.6536 10.5317C32.6662 8.34177 31.2812 7.10641 28.8324 7.10641ZM28.6435 11.8544H26.9878V9.35875H28.6435C29.5311 9.35875 30.0662 9.75806 30.0662 10.6066C30.0662 11.4551 29.5563 11.8544 28.6435 11.8544Z" fill="currentColor"/>
<ellipse cx="60.3166" cy="8.99989" rx="1.65251" ry="1.63636" fill="currentColor"/>
</svg>
